<svg width="121" height="40" viewBox="0 0 121 40" fill="none" xmlns="http://www.w3.org/2000/svg">
<rect width="120.705" height="40" fill="#111111"/>
<path d="M116.109 6.89453C116.109 5.62549 115.081 4.59673 113.812 4.59673H106.706C105.721 4.59673 104.846 5.22399 104.53 6.15636L100.297 18.6335C100.297 18.634 100.297 18.6346 100.297 18.6352C99.9928 19.5263 99.6938 20.4268 99.3996 21.3365C99.1097 20.4404 98.8093 19.5394 98.4985 18.6334C98.4981 18.6321 98.4977 18.6309 98.4973 18.6296L94.2659 6.15636C93.9496 5.22399 93.0745 4.59673 92.0899 4.59673H84.9844C83.7153 4.59673 82.6866 5.62549 82.6866 6.89453V33.1077C82.6866 34.3768 83.7153 35.4055 84.9844 35.4055H89.2551C90.5241 35.4055 91.5529 34.3768 91.5529 33.1077V24.6347L94.7017 33.8507C95.0194 34.7806 95.8933 35.4055 96.876 35.4055H101.92C102.903 35.4055 103.777 34.7806 104.094 33.8507L107.243 24.6347V33.1077C107.243 34.3768 108.272 35.4055 109.541 35.4055H113.812C115.081 35.4055 116.109 34.3768 116.109 33.1077V6.89453Z" fill="#E8DED0" stroke="#E8DED0" stroke-width="4.5956" stroke-linejoin="round"/>
<path d="M57.5547 4.59673C56.2856 4.59673 55.2569 5.62549 55.2569 6.89453V33.1077C55.2569 34.3768 56.2856 35.4055 57.5547 35.4055H63.9239C64.7854 35.4055 65.5745 34.9236 65.968 34.1572L71.6009 23.186L71.6016 23.1847C71.9767 22.4529 72.3472 21.7254 72.7129 21.0021C72.7095 21.613 72.7078 22.212 72.7078 22.7992V33.1077C72.7078 34.3768 73.7366 35.4055 75.0056 35.4055H79.2395C80.5085 35.4055 81.5373 34.3768 81.5373 33.1077V6.89453C81.5373 5.62549 80.5085 4.59673 79.2395 4.59673H72.9071C72.0478 4.59673 71.2603 5.07621 70.8658 5.83962L65.196 16.8109L65.196 16.8109L65.1926 16.8175C64.8302 17.5245 64.4722 18.2275 64.1186 18.9265C64.1216 18.352 64.1232 17.7776 64.1232 17.2031V6.89453C64.1232 5.62549 63.0944 4.59673 61.8254 4.59673H57.5547Z" fill="#E8DED0" stroke="#E8DED0" stroke-width="4.5956" stroke-linejoin="round"/>
<path d="M30.6631 33.1077C30.6631 34.3768 31.6919 35.4055 32.9609 35.4055H37.3789C38.6479 35.4055 39.6767 34.3768 39.6767 33.1077V25.5756H42.4227C45.7953 25.5756 48.7463 24.7512 50.9267 22.769C53.1015 20.7919 54.1087 18.133 54.1087 15.0678C54.1087 12.0194 53.0966 9.37591 50.9267 7.40328C48.7463 5.4211 45.7953 4.59673 42.4227 4.59673H32.9609C31.6919 4.59673 30.6631 5.62549 30.6631 6.89453V33.1077ZM39.6767 17.2615V12.9108H41.9073C43.4389 12.9108 44.1601 13.237 44.4724 13.4959C44.7022 13.6862 44.9847 14.0625 44.9847 15.0678C44.9847 16.0915 44.6981 16.4787 44.4653 16.6732C44.1535 16.9338 43.4353 17.2615 41.9073 17.2615H39.6767Z" fill="#E8DED0" stroke="#E8DED0" stroke-width="4.5956" stroke-linejoin="round"/>
<path d="M28.0025 8.39119C28.5871 7.71006 28.7217 6.75081 28.3469 5.93514C27.9721 5.11947 27.1566 4.59673 26.2589 4.59673H20.9574C20.2692 4.59673 19.6172 4.90522 19.1807 5.43734L13.6093 12.2302V6.89453C13.6093 5.62549 12.5806 4.59673 11.3115 4.59673H6.89355C5.62452 4.59673 4.59576 5.62549 4.59576 6.89453V33.1077C4.59576 34.3768 5.62452 35.4055 6.89355 35.4055H11.3115C12.5806 35.4055 13.6093 34.3768 13.6093 33.1077V26.9273L19.7169 34.5451C20.153 35.089 20.8125 35.4055 21.5096 35.4055H27.2162C28.1118 35.4055 28.9258 34.8852 29.3017 34.0723C29.6777 33.2594 29.547 32.3022 28.9671 31.6197L18.5673 19.3827L28.0025 8.39119Z" fill="#E8DED0" stroke="#E8DED0" stroke-width="4.5956" stroke-linejoin="round"/>
</svg>
