<svg width="45" height="42" viewBox="0 0 45 42" fill="none" xmlns="http://www.w3.org/2000/svg">
<g clip-path="url(#clip0_1394_19282)">
<path d="M21.9971 21.5586C22.8623 24.0156 24.4648 26.8425 26.2242 28.8266C26.6378 29.293 30.5709 33.1913 29.8213 30.3938C28.9244 27.0465 25.7988 24.8944 24.9525 21.736" stroke="#E8DED0" stroke-linecap="round"/>
<path d="M23.051 14.7451C22.7283 14.0772 21.7724 14.1296 21.1693 14.0686C20.5772 14.0088 19.8137 14.2276 19.2618 14.445C18.6531 14.6848 18.2308 15.1282 17.8729 15.6673C17.638 16.0213 17.3354 16.3162 17.3375 16.7701C17.3399 17.3086 17.5683 17.9267 17.88 18.3636C18.1888 18.7966 18.7193 19.3755 19.2187 19.6122C20.0695 20.0156 21.2608 19.7236 22.106 19.4321C22.898 19.159 24.0462 18.638 24.0907 17.6555C24.1255 16.8864 23.7018 16.312 23.5119 15.6033" stroke="#E8DED0" stroke-linecap="round"/>
<path d="M22.9695 21.5815C20.5999 22.2164 18.3072 22.8059 15.9386 21.7504C14.8309 21.2568 13.9849 20.483 13.6652 19.2899C13.0817 17.1124 13.5708 15.4277 15.4056 13.9524C17.0081 12.6638 19.126 10.6741 21.3598 11.0022C22.824 11.2173 24.306 11.6904 25.4745 12.6163C26.6363 13.5369 27.6658 14.6329 27.842 16.1541C27.9871 17.4064 27.1821 18.9433 26.5571 19.9645C26.0465 20.7987 25.422 21.3322 24.5839 21.7975" stroke="#E8DED0" stroke-linecap="round"/>
</g>
<defs>
<clipPath id="clip0_1394_19282">
<rect width="22" height="22" fill="white" transform="translate(11.5 10)"/>
</clipPath>
</defs>
</svg>
