<svg width="23" height="22" viewBox="0 0 23 22" fill="none" xmlns="http://www.w3.org/2000/svg">
<path d="M2.70605 14.145C2.70605 16.1131 4.4601 17.591 6.62158 17.591C8.78306 17.591 10.5302 16.1131 10.5302 14.145V12.5015C10.8686 12.3841 11.2622 12.3081 11.6696 12.3081C12.1116 12.3081 12.4914 12.3564 12.8022 12.46V14.145C12.8022 16.1131 14.5493 17.591 16.7108 17.591C18.8723 17.591 20.6263 16.1131 20.6263 14.145C20.6263 13.6478 20.5435 13.1506 20.281 12.5291L17.4566 5.88581C17.0423 4.8983 16.1791 4.33203 15.088 4.33203C13.7068 4.33203 12.8022 5.22977 12.8022 6.56948V7.14955C12.4638 7.05978 12.0771 7.01835 11.6696 7.01835C11.276 7.01835 10.8893 7.07359 10.5302 7.17718V6.56948C10.5302 5.22287 9.62556 4.33203 8.24442 4.33203C7.14641 4.33203 6.29011 4.89139 5.87577 5.87891L3.05134 12.5291C2.78892 13.1506 2.70605 13.6478 2.70605 14.145ZM10.5233 10.3814V9.30413C10.8893 9.19364 11.276 9.13839 11.6696 9.13839C12.0771 9.13839 12.4638 9.17983 12.8022 9.2696V10.3469C12.4914 10.2433 12.1185 10.195 11.6696 10.195C11.2622 10.195 10.8617 10.264 10.5233 10.3814ZM4.03195 14.145C4.03195 12.8537 5.14376 11.9835 6.62158 11.9835C8.0994 11.9835 9.23884 12.8537 9.23884 14.145C9.23884 15.4364 8.0994 16.3065 6.62158 16.3065C5.14376 16.3065 4.03195 15.4364 4.03195 14.145ZM14.0935 14.145C14.0935 12.8537 15.233 11.9835 16.7108 11.9835C18.1886 11.9835 19.2935 12.8537 19.2935 14.145C19.2935 15.4364 18.1886 16.3134 16.7108 16.3134C15.233 16.3134 14.0935 15.4364 14.0935 14.145Z" fill="#E8DFD0"/>
</svg>
