<svg width="23" height="22" viewBox="0 0 23 22" fill="none" xmlns="http://www.w3.org/2000/svg">
<path d="M12.9944 18.2146H14.7208C15.4113 18.2146 15.7773 17.8348 15.7773 17.1581V7.8561L16.827 17.31C16.8961 17.9867 17.2966 18.332 17.9803 18.2492L20.1417 17.9591C20.8254 17.8763 21.1431 17.4757 21.074 16.799L19.8448 5.68771C19.7757 5.01095 19.3752 4.66567 18.6915 4.74854L16.5232 5.03857C16.1848 5.0731 15.9362 5.19741 15.7773 5.39076V3.91985C15.7773 3.24309 15.4113 2.86328 14.7208 2.86328H12.9944C12.3107 2.86328 11.9447 3.24309 11.9447 3.91985V17.1581C11.9447 17.8348 12.3107 18.2146 12.9944 18.2146ZM3.29876 18.2146H4.4451C5.13567 18.2146 5.50167 17.8348 5.50167 17.1581V5.86726C5.50167 5.1905 5.13567 4.81069 4.4451 4.81069H3.29876C2.60819 4.81069 2.24219 5.1905 2.24219 5.86726V17.1581C2.24219 17.8348 2.60819 18.2146 3.29876 18.2146ZM7.37312 18.2146H10.0663C10.7569 18.2146 11.1229 17.8348 11.1229 17.1581V8.31878C11.1229 7.64202 10.7569 7.26911 10.0663 7.26911H7.37312C6.68945 7.26911 6.32345 7.64202 6.32345 8.31878V17.1581C6.32345 17.8348 6.68945 18.2146 7.37312 18.2146ZM7.91867 9.85184C7.64934 9.85184 7.44908 9.64467 7.44908 9.38225C7.44908 9.12674 7.64934 8.92648 7.91867 8.92648H9.5415C9.80392 8.92648 10.0042 9.12674 10.0042 9.38225C10.0042 9.64467 9.80392 9.85184 9.5415 9.85184H7.91867ZM7.91867 16.5573C7.64934 16.5573 7.44908 16.357 7.44908 16.0946C7.44908 15.8322 7.64934 15.6319 7.91867 15.6319H9.5415C9.80392 15.6319 10.0042 15.8322 10.0042 16.0946C10.0042 16.357 9.80392 16.5573 9.5415 16.5573H7.91867Z" fill="#E8DFD0"/>
</svg>
