<svg width="27" height="18" viewBox="0 0 27 18" fill="none" xmlns="http://www.w3.org/2000/svg">
<g clip-path="url(#clip0_1172_2508)">
<path d="M7.54395 7.79492C9.65332 7.79492 11.4111 6.03711 11.4111 3.92773C11.4111 1.80078 9.65332 0.0429688 7.54395 0.0429688C5.41699 0.0429688 3.66797 1.80078 3.66797 3.92773C3.66797 6.03711 5.42578 7.79492 7.54395 7.79492ZM7.07812 6.00195C6.88477 6.01074 6.74414 5.90527 6.6123 5.74707L5.62793 4.56934C5.53125 4.45508 5.49609 4.34961 5.49609 4.2002C5.49609 3.92773 5.70703 3.7168 5.9707 3.7168C6.14648 3.7168 6.26953 3.78711 6.38379 3.94531L7.06055 4.78906L8.625 2.27539C8.73926 2.09961 8.88867 2.01172 9.06445 2.01172C9.32812 2.01172 9.54785 2.21387 9.54785 2.45996C9.54785 2.58301 9.52148 2.69727 9.43359 2.8291L7.56152 5.73828C7.44727 5.90527 7.28027 6.01074 7.07812 6.00195ZM14.1973 4.70117H23.0391C23.4697 4.70117 23.8213 4.3584 23.8213 3.92773C23.8213 3.49707 23.4697 3.1543 23.0391 3.1543H14.1973C13.7666 3.1543 13.4326 3.49707 13.4326 3.92773C13.4326 4.3584 13.7666 4.70117 14.1973 4.70117ZM7.54395 17.9551C9.65332 17.9551 11.4111 16.1973 11.4111 14.0791C11.4111 11.9521 9.65332 10.2031 7.54395 10.2031C5.41699 10.2031 3.66797 11.9609 3.66797 14.0791C3.66797 16.1973 5.42578 17.9551 7.54395 17.9551ZM7.54395 16.4609C6.24316 16.4609 5.16211 15.3711 5.16211 14.0791C5.16211 12.7871 6.25195 11.6885 7.54395 11.6885C8.82715 11.6885 9.92578 12.7871 9.92578 14.0791C9.92578 15.3711 8.82715 16.4609 7.54395 16.4609ZM14.1973 14.8701H23.0391C23.4697 14.8701 23.8213 14.5273 23.8213 14.0967C23.8213 13.666 23.4697 13.3232 23.0391 13.3232H14.1973C13.7666 13.3232 13.4326 13.666 13.4326 14.0967C13.4326 14.5273 13.7666 14.8701 14.1973 14.8701Z" fill="#E8DFD0"/>
</g>
<defs>
<clipPath id="clip0_1172_2508">
<rect width="26.1533" height="17.9121" fill="white" transform="translate(0.667969 0.0429688)"/>
</clipPath>
</defs>
</svg>
