<svg width="23" height="22" viewBox="0 0 23 22" fill="none" xmlns="http://www.w3.org/2000/svg">
<path d="M4.34563 17.1289C5.38149 17.1289 6.07896 16.7353 6.70047 16.024L7.92969 14.5945C8.10233 14.3873 8.28188 14.2976 8.49595 14.2976H15.0356C15.2497 14.2976 15.4293 14.3873 15.6019 14.5945L16.8311 16.024C17.4526 16.7353 18.157 17.1289 19.186 17.1289C20.7812 17.1289 21.8861 16.0723 21.8861 14.3873C21.8861 13.6622 21.7273 12.8405 21.4579 11.9289C21.0298 10.4994 20.2909 8.57275 19.5865 7.08803C18.9857 5.83119 18.6611 5.21659 17.1419 4.8713C15.8091 4.56745 13.986 4.36719 11.7693 4.36719C9.55253 4.36719 7.72252 4.56745 6.38972 4.8713C4.87737 5.21659 4.5459 5.83119 3.9451 7.08803C3.24072 8.57275 2.50181 10.4994 2.07366 11.9289C1.80434 12.8405 1.64551 13.6622 1.64551 14.3873C1.64551 16.0723 2.75042 17.1289 4.34563 17.1289ZM6.1273 9.40144C6.1273 9.02853 6.369 8.78683 6.75572 8.78683H7.91588V7.66811C7.91588 7.28139 8.15067 7.03278 8.53048 7.03278C8.90339 7.03278 9.13818 7.28139 9.13818 7.66811V8.78683H10.2293C10.6505 8.78683 10.906 9.02853 10.906 9.40144C10.906 9.78816 10.6505 10.0299 10.2293 10.0299H9.13818V11.1555C9.13818 11.5422 8.90339 11.7908 8.53048 11.7908C8.15067 11.7908 7.91588 11.5422 7.91588 11.1555V10.0299H6.75572C6.369 10.0299 6.1273 9.78816 6.1273 9.40144ZM15.0011 8.31724C15.0011 7.73717 15.45 7.2883 16.0232 7.2883C16.6032 7.2883 17.0452 7.73717 17.0452 8.31724C17.0452 8.89732 16.6032 9.33929 16.0232 9.33929C15.45 9.33929 15.0011 8.89732 15.0011 8.31724ZM12.9501 10.3959C12.9501 9.81578 13.399 9.36691 13.9722 9.36691C14.5453 9.36691 14.9942 9.81578 14.9942 10.3959C14.9942 10.969 14.5453 11.411 13.9722 11.411C13.399 11.411 12.9501 10.969 12.9501 10.3959Z" fill="#E8DFD0"/>
</svg>
