<svg width="30" height="18" viewBox="0 0 30 18" fill="none" xmlns="http://www.w3.org/2000/svg">
<g clip-path="url(#clip0_1172_2512)">
<path d="M21.9648 1.97168C21.0596 1.06641 19.8115 0.890625 18.2119 0.890625H11.6201C10.0469 0.890625 8.79004 1.0752 7.89355 1.97168C6.98828 2.87695 6.82129 4.11621 6.82129 5.69824V12.2812C6.82129 13.8896 6.98828 15.1289 7.88477 16.0254C8.79883 16.9307 10.0469 17.1064 11.6465 17.1064H18.2119C19.8115 17.1064 21.0596 16.9307 21.9648 16.0254C22.8701 15.1201 23.0371 13.8896 23.0371 12.2812V5.71582C23.0371 4.11621 22.8701 2.86816 21.9648 1.97168ZM14.7314 10.8311C14.1689 10.8311 13.8525 10.5586 13.8525 10.04V9.94336C13.8525 9.1084 14.3359 8.64258 14.9775 8.18555C15.751 7.64941 16.1377 7.36816 16.1377 6.78809C16.1377 6.17285 15.6455 5.74219 14.9072 5.74219C14.3623 5.74219 13.9316 5.99707 13.6152 6.49805L13.4834 6.69141C13.2988 6.92871 13.0703 7.06934 12.7363 7.06934C12.3584 7.06934 12.0068 6.79688 12.0068 6.35742C12.0068 6.18164 12.0508 6.03223 12.1035 5.87402C12.3936 5.02148 13.4482 4.30957 15.0215 4.30957C16.6475 4.30957 18.0186 5.1709 18.0186 6.7002C18.0186 7.76367 17.4297 8.29102 16.5244 8.87109C15.9355 9.25781 15.6104 9.57422 15.584 10.0488C15.584 10.084 15.584 10.1191 15.584 10.1543C15.5576 10.5322 15.2324 10.8311 14.7314 10.8311ZM14.7139 13.626C14.125 13.626 13.6328 13.1953 13.6328 12.624C13.6328 12.0527 14.125 11.6133 14.7139 11.6133C15.3115 11.6133 15.7861 12.0439 15.7861 12.624C15.7861 13.2041 15.3027 13.626 14.7139 13.626Z" fill="#E8DFD0"/>
</g>
<defs>
<clipPath id="clip0_1172_2512">
<rect width="28.2158" height="16.2158" fill="white" transform="translate(0.821289 0.890625)"/>
</clipPath>
</defs>
</svg>
