<svg width="23" height="22" viewBox="0 0 23 22" fill="none" xmlns="http://www.w3.org/2000/svg">
<path d="M5.75732 17.1938H17.573C19.0715 17.1938 19.8518 16.4204 19.8518 14.9425V6.53831C19.8518 5.06049 19.0715 4.28705 17.573 4.28705H16.8202L7.51137 1.26236C7.17299 1.15187 6.80699 1.33832 6.7034 1.6698C6.59291 2.00127 6.77937 2.36727 7.11775 2.48467L12.6699 4.28705H5.75732C4.26569 4.28705 3.48535 5.05358 3.48535 6.53831V14.9425C3.48535 16.4204 4.26569 17.1938 5.75732 17.1938ZM9.99742 7.83658C9.70047 7.83658 9.45878 7.59488 9.45878 7.29103C9.45878 6.99408 9.70047 6.75238 9.99742 6.75238C10.2875 6.75238 10.5292 6.99408 10.5292 7.29103C10.5292 7.59488 10.2944 7.83658 9.99742 7.83658ZM16.2333 9.20391C15.6187 9.21081 15.1076 8.7067 15.1076 8.09209C15.1076 7.48439 15.6187 6.95956 16.2333 6.97337C16.8548 6.98027 17.352 7.48439 17.352 8.09209C17.352 8.7067 16.8548 9.197 16.2333 9.20391ZM11.71 8.32688C11.4269 8.32688 11.1921 8.07828 11.1921 7.78824C11.1921 7.48439 11.42 7.24269 11.71 7.24269C12.0208 7.24269 12.2556 7.48439 12.2556 7.78824C12.2556 8.07828 12.0208 8.32688 11.71 8.32688ZM8.271 8.32688C7.97405 8.32688 7.73926 8.07828 7.73926 7.78824C7.73926 7.48439 7.97405 7.24269 8.271 7.24269C8.56794 7.24269 8.79583 7.48439 8.79583 7.78824C8.79583 8.07828 8.56794 8.32688 8.271 8.32688ZM13.0083 9.56991C12.7183 9.56991 12.4835 9.33511 12.4835 9.03817C12.4835 8.73432 12.7183 8.48571 13.0083 8.48571C13.3052 8.48571 13.5469 8.73432 13.5469 9.03817C13.5469 9.33511 13.3052 9.56991 13.0083 9.56991ZM6.97963 9.56991C6.68959 9.56991 6.44099 9.33511 6.44099 9.03817C6.44099 8.73432 6.68959 8.48571 6.97963 8.48571C7.26967 8.48571 7.50446 8.73432 7.50446 9.03817C7.50446 9.33511 7.26967 9.56991 6.97963 9.56991ZM9.99742 9.60443C9.70047 9.60443 9.45878 9.36274 9.45878 9.0727C9.45878 8.76194 9.70047 8.52024 9.99742 8.52024C10.2944 8.52024 10.5292 8.76194 10.5292 9.0727C10.5292 9.36274 10.2944 9.60443 9.99742 9.60443ZM11.5995 10.3019C11.3095 10.3019 11.0609 10.0533 11.0609 9.77017C11.0609 9.47323 11.3095 9.22462 11.5995 9.22462C11.8896 9.22462 12.1244 9.47323 12.1244 9.77017C12.1244 10.0533 11.8896 10.3019 11.5995 10.3019ZM8.38839 10.3019C8.09835 10.3019 7.86356 10.0533 7.86356 9.77017C7.86356 9.47323 8.09835 9.22462 8.38839 9.22462C8.68534 9.22462 8.93394 9.47323 8.93394 9.77017C8.93394 10.0533 8.68534 10.3019 8.38839 10.3019ZM16.2333 12.3943C15.6187 12.3943 15.1076 11.8902 15.1076 11.2687C15.1076 10.6541 15.6187 10.15 16.2333 10.15C16.8548 10.15 17.352 10.6541 17.352 11.2687C17.352 11.8902 16.8548 12.3943 16.2333 12.3943ZM13.4503 11.2342C13.1533 11.2342 12.9116 10.9925 12.9116 10.7024C12.9116 10.4055 13.1533 10.1638 13.4503 10.1638C13.7403 10.1638 13.982 10.4055 13.982 10.7024C13.982 10.9925 13.7403 11.2342 13.4503 11.2342ZM6.53767 11.2342C6.24763 11.2342 6.01283 10.9925 6.01283 10.7024C6.01283 10.4055 6.24763 10.1638 6.53767 10.1638C6.83461 10.1638 7.07631 10.4055 7.07631 10.7024C7.07631 10.9925 6.83461 11.2342 6.53767 11.2342ZM9.99742 11.2618C9.70047 11.2618 9.45878 11.027 9.45878 10.7301C9.45878 10.4331 9.70047 10.1983 9.99742 10.1983C10.2944 10.1983 10.5292 10.4331 10.5292 10.7301C10.5292 11.027 10.2944 11.2618 9.99742 11.2618ZM11.5995 12.2355C11.3095 12.2355 11.0609 11.9938 11.0609 11.6969C11.0609 11.3999 11.3095 11.1582 11.5995 11.1582C11.8965 11.1582 12.1244 11.3999 12.1244 11.6969C12.1244 11.9938 11.8965 12.2355 11.5995 12.2355ZM8.38839 12.2355C8.09835 12.2355 7.86356 11.9938 7.86356 11.6969C7.86356 11.3999 8.09835 11.1582 8.38839 11.1582C8.68534 11.1582 8.93394 11.3999 8.93394 11.6969C8.93394 11.9938 8.68534 12.2355 8.38839 12.2355ZM13.0083 12.9123C12.7183 12.9123 12.4835 12.6637 12.4835 12.3598C12.4835 12.0629 12.7183 11.8281 13.0083 11.8281C13.3052 11.8281 13.5469 12.0629 13.5469 12.3598C13.5469 12.6637 13.2983 12.9123 13.0083 12.9123ZM6.97963 12.9123C6.68959 12.9123 6.44099 12.6637 6.44099 12.3598C6.44099 12.0629 6.68959 11.8281 6.97963 11.8281C7.26967 11.8281 7.50446 12.0629 7.50446 12.3598C7.50446 12.6637 7.26967 12.9123 6.97963 12.9123ZM9.99742 12.9468C9.70047 12.9468 9.45878 12.6913 9.45878 12.3874C9.45878 12.0974 9.70047 11.8557 9.99742 11.8557C10.2944 11.8557 10.5292 12.0974 10.5292 12.3874C10.5292 12.6913 10.2875 12.9468 9.99742 12.9468ZM11.71 14.1898C11.42 14.1898 11.1921 13.9481 11.1921 13.6443C11.1921 13.3542 11.4269 13.1056 11.71 13.1056C12.0208 13.1056 12.2556 13.3542 12.2556 13.6443C12.2556 13.9481 12.0208 14.1898 11.71 14.1898ZM8.271 14.1898C7.97405 14.1898 7.73926 13.9481 7.73926 13.6443C7.73926 13.3542 7.97405 13.1056 8.271 13.1056C8.56794 13.1056 8.79583 13.3542 8.79583 13.6443C8.79583 13.9481 8.56794 14.1898 8.271 14.1898ZM9.99742 14.7077C9.70047 14.7077 9.45878 14.4729 9.45878 14.176C9.45878 13.8722 9.70047 13.6235 9.99742 13.6235C10.2944 13.6235 10.5292 13.8722 10.5292 14.176C10.5292 14.4729 10.2875 14.7077 9.99742 14.7077Z" fill="#E8DFD0"/>
</svg>
