<svg width="1335" height="120" viewBox="0 0 1335 120" fill="none" xmlns="http://www.w3.org/2000/svg">
<g filter="url(#filter0_d_1172_2523)">
<path d="M1307.97 73.2753C1307.97 71.5156 1306.64 70.0676 1304.93 69.887C1305.84 69.276 1306.44 68.2342 1306.44 67.0517C1306.44 61.8658 1307.03 58.539 1307.88 56.6763C1308.72 54.8389 1310.86 52.2537 1314.84 48.9164L1314.86 48.8965C1319.44 44.9808 1322.82 41.4388 1324.65 38.3059C1326.55 35.05 1327.41 31.2213 1327.41 26.9808C1327.41 19.9268 1324.79 14.0787 1319.49 9.81344C1314.27 5.54682 1307.47 3.59275 1299.43 3.59275C1290.82 3.59275 1283.64 5.73079 1278.38 10.4643C1273.06 15.1831 1270.47 22.0012 1270.15 30.3463C1270.12 31.2716 1270.46 32.1712 1271.1 32.8382C1271.74 33.5052 1272.63 33.882 1273.56 33.882H1286.44C1288.25 33.882 1289.75 32.4626 1289.84 30.6523C1290.03 26.9885 1291.05 24.8006 1292.38 23.5077C1293.71 22.2249 1295.88 21.3257 1299.43 21.3257C1302.46 21.3257 1304.38 22.0611 1305.62 23.1259C1305.64 23.1414 1305.66 23.1567 1305.68 23.1718C1306.86 24.1444 1307.49 25.4004 1307.49 27.3084C1307.49 29.3143 1307.08 30.8034 1306.43 31.9243C1306.42 31.9377 1306.41 31.9511 1306.4 31.9646C1305.75 33.1173 1303.98 35.1598 1300.65 38.2046C1296.11 42.2245 1292.79 46.0466 1291.11 49.6634C1289.41 53.2427 1288.71 58.0144 1288.71 63.667C1288.71 65.1576 1288.75 66.4062 1288.83 67.3602C1288.93 68.4121 1289.5 69.3163 1290.31 69.8719C1288.51 69.9582 1287.07 71.4489 1287.07 73.2753V86.2683C1287.07 88.15 1288.6 89.6755 1290.48 89.6755H1304.57C1306.45 89.6755 1307.97 88.15 1307.97 86.2683V73.2753Z" fill="#E8DFD0" stroke="#E8DFD0" stroke-width="6.81451" stroke-linejoin="round"/>
<path d="M1218.21 83.5535L1218.19 83.5278C1212.16 77.0523 1209.39 68.5248 1209.39 58.5348C1209.39 48.5548 1212.15 40.05 1218.2 33.6381C1224.27 27.1336 1232.36 24.0532 1241.91 24.0532C1251.45 24.0532 1259.52 27.1295 1265.52 33.6519C1271.56 40.0622 1274.32 48.5619 1274.32 58.5348C1274.32 68.5238 1271.55 77.0506 1265.52 83.5259L1218.21 83.5535ZM1218.21 83.5535C1224.28 89.9836 1232.38 93.0164 1241.91 93.0164C1251.44 93.0164 1259.51 89.984 1265.52 83.5278L1218.21 83.5535ZM1241.91 44.1016C1244.77 44.1016 1246.71 45.1096 1248.26 47.2428C1249.96 49.5758 1251.1 53.1571 1251.1 58.5348C1251.1 63.9125 1249.96 67.4938 1248.26 69.8268C1246.71 71.96 1244.77 72.968 1241.91 72.968C1239.05 72.968 1237.11 71.96 1235.56 69.8269C1233.86 67.4938 1232.72 63.9124 1232.72 58.5348C1232.72 53.1572 1233.86 49.5758 1235.56 47.2428C1237.11 45.1096 1239.05 44.1016 1241.91 44.1016Z" fill="#E8DFD0" stroke="#E8DFD0" stroke-width="10.2218" stroke-linejoin="round"/>
<path d="M1214.4 30.8008C1214.4 28.919 1212.88 27.3935 1210.99 27.3935H1173.33C1171.44 27.3935 1169.92 28.919 1169.92 30.8008V86.2667C1169.92 88.1485 1171.44 89.674 1173.33 89.674H1185.77C1187.65 89.674 1189.18 88.1485 1189.18 86.2667V43.7071H1210.99C1212.88 43.7071 1214.4 42.1816 1214.4 40.2999V30.8008Z" fill="#E8DFD0" stroke="#E8DFD0" stroke-width="6.81451" stroke-linejoin="round"/>
<path d="M1112.04 81.786L1112.06 81.7989C1117.57 87.6343 1124.95 90.461 1133.9 90.461C1142.85 90.461 1150.2 87.6343 1155.64 81.7851C1161.13 75.8906 1163.75 68.0423 1163.75 58.5348C1163.75 49.0358 1161.13 41.219 1155.64 35.3933C1150.2 29.4751 1142.85 26.6086 1133.9 26.6086C1124.94 26.6086 1117.56 29.4772 1112.05 35.3863C1106.55 41.2128 1103.93 49.032 1103.93 58.5348C1103.93 68.0428 1106.55 75.8914 1112.04 81.786ZM1133.9 41.5461C1137.55 41.5461 1140.26 42.9236 1142.31 45.7372C1144.44 48.6506 1145.64 52.8252 1145.64 58.5348C1145.64 64.2444 1144.44 68.419 1142.31 71.3324C1140.26 74.146 1137.55 75.5235 1133.9 75.5235C1130.25 75.5235 1127.53 74.146 1125.48 71.3324C1123.35 68.419 1122.15 64.2444 1122.15 58.5348C1122.15 52.8252 1123.35 48.6507 1125.48 45.7372C1127.53 42.9236 1130.25 41.5461 1133.9 41.5461Z" fill="#E8DFD0" stroke="#E8DFD0" stroke-width="5.11088" stroke-linejoin="round"/>
<path d="M1096.12 30.8008C1096.12 29.8599 1095.35 29.0972 1094.41 29.0972H1081.97C1081.03 29.0972 1080.26 29.8599 1080.26 30.8008V51.8076H1058.89V30.8008C1058.89 29.8599 1058.12 29.0972 1057.18 29.0972H1044.73C1043.79 29.0972 1043.03 29.8599 1043.03 30.8008V86.2667C1043.03 87.2076 1043.79 87.9704 1044.73 87.9704H1057.18C1058.12 87.9704 1058.89 87.2076 1058.89 86.2667V64.714H1080.26V86.2667C1080.26 87.2076 1081.03 87.9704 1081.97 87.9704H1094.41C1095.35 87.9704 1096.12 87.2076 1096.12 86.2667V30.8008Z" fill="#E8DFD0" stroke="#E8DFD0" stroke-width="3.40725" stroke-linejoin="round"/>
<path d="M1000.99 30.8008C1000.99 30.3303 1000.61 29.949 1000.14 29.949H987.69C987.22 29.949 986.839 30.3303 986.839 30.8008V86.2667C986.839 86.7372 987.22 87.1185 987.69 87.1185H1013.02C1020.19 87.1185 1025.8 85.5311 1029.73 82.2257C1033.74 78.9034 1035.71 74.1653 1035.71 68.142C1035.71 62.1187 1033.74 57.3806 1029.73 54.0583C1025.8 50.753 1020.19 49.1655 1013.02 49.1655H1000.99V30.8008ZM1000.99 76.1342V60.1499H1011.71C1015.14 60.1499 1017.56 60.8697 1019.11 62.1629C1020.63 63.4315 1021.45 65.3697 1021.45 68.142C1021.45 70.9143 1020.63 72.8525 1019.11 74.1212C1017.56 75.4144 1015.14 76.1342 1011.71 76.1342H1000.99Z" fill="#E8DFD0" stroke="#E8DFD0" stroke-width="1.70363" stroke-linejoin="round"/>
<path d="M971.699 30.8008V86.2667H959.252V40.2999H943.311C943.02 53.1109 942.074 62.9739 940.472 69.889C938.944 76.7312 936.869 81.2806 934.249 83.5371C931.701 85.7208 928.171 86.8126 923.658 86.8126C922.056 86.8126 920.455 86.6307 918.854 86.2667V77.2044C919.581 77.35 920.273 77.4227 920.928 77.4227C923.476 77.4227 925.441 76.3309 926.824 74.1472C928.207 71.9635 929.299 67.5233 930.1 60.8266C930.9 54.0572 931.41 44.0486 931.628 30.8008H971.699Z" fill="#E8DFD0"/>
<path d="M888.695 29.1641C896.12 29.1641 901.761 30.9838 905.619 34.6233C909.549 38.2628 911.515 43.6857 911.515 50.8919V71.637C911.515 77.6058 911.988 82.4827 912.934 86.2678H901.688C901.178 84.0113 900.924 81.4272 900.924 78.5157H900.705C896.629 84.4844 890.406 87.4688 882.035 87.4688C876.357 87.4688 871.808 85.9402 868.387 82.883C864.965 79.7531 863.255 75.786 863.255 70.9819C863.255 66.2505 864.856 62.4655 868.059 59.6267C871.335 56.7878 876.83 54.7497 884.546 53.5123C889.204 52.7116 894.191 52.1657 899.504 51.8745V49.6908C899.504 42.0479 895.901 38.2264 888.695 38.2264C885.347 38.2264 882.726 39.0999 880.834 40.8468C878.941 42.5938 877.922 44.9595 877.776 47.9439H865.548C865.839 42.4118 867.95 37.8989 871.88 34.4049C875.884 30.911 881.489 29.1641 888.695 29.1641ZM899.504 62.6838V59.9542C894.773 60.2454 890.515 60.7185 886.73 61.3736C882.726 62.0287 879.887 63.0114 878.213 64.3216C876.612 65.6318 875.811 67.5608 875.811 70.1084C875.811 72.5833 876.648 74.585 878.322 76.1136C880.069 77.5694 882.508 78.2973 885.638 78.2973C889.86 78.2973 893.208 77.0598 895.683 74.585C897.139 73.0564 898.121 71.455 898.631 69.7809C899.213 68.0339 899.504 65.6682 899.504 62.6838Z" fill="#E8DFD0"/>
<path d="M852.054 30.8008V86.2667H839.607V63.0103H814.822V86.2667H802.375V30.8008H814.822V53.5112H839.607V30.8008H852.054Z" fill="#E8DFD0"/>
<path d="M786.381 30.8008V86.2667H773.825V65.3032C773.825 58.3154 774.007 50.5269 774.371 41.9376H774.153C771.023 48.8527 767.311 56.1317 763.016 63.7746L750.241 86.2667H731.789V30.8008H744.345V51.8735C744.345 59.662 744.127 67.4141 743.69 75.1299H743.909C747.33 67.8509 751.078 60.5719 755.155 53.2929L767.929 30.8008H786.381Z" fill="#E8DFD0"/>
<path d="M716.724 30.8008C716.724 30.3303 716.343 29.949 715.873 29.949H696.001C695.644 29.949 695.325 30.1713 695.202 30.506L686.139 55.0726L686.138 55.0777C683.943 61.1435 681.921 67.2948 680.069 73.5315C678.049 66.5349 676.056 60.3808 674.089 55.0715L674.088 55.0695L664.917 30.5029C664.793 30.1698 664.474 29.949 664.119 29.949H644.356C643.886 29.949 643.505 30.3303 643.505 30.8008V86.2667C643.505 86.7372 643.886 87.1185 644.356 87.1185H655.93C656.401 87.1185 656.782 86.7372 656.782 86.2667V60.0623C656.782 54.9836 656.721 49.9049 656.598 44.8262C658.114 49.3011 659.955 54.4426 662.119 60.2494C662.119 60.2498 662.12 60.2502 662.12 60.2507L671.836 86.5618C671.96 86.8964 672.279 87.1185 672.635 87.1185H687.485C687.84 87.1185 688.158 86.8978 688.282 86.5647L698.109 60.2512L698.109 60.2507C700.218 54.5924 702.02 49.566 703.514 45.1723C703.397 50.1356 703.338 55.099 703.338 60.0623V86.2667C703.338 86.7372 703.719 87.1185 704.19 87.1185H715.873C716.343 87.1185 716.724 86.7372 716.724 86.2667V30.8008Z" fill="#E8DFD0" stroke="#E8DFD0" stroke-width="1.70363" stroke-linejoin="round"/>
<path d="M630.066 30.8008C630.066 29.8599 629.303 29.0972 628.362 29.0972H609.91C609.297 29.0972 608.731 29.4264 608.428 29.9594L595.654 52.4515L595.654 52.4515L595.649 52.4605C592.86 57.4399 590.224 62.4203 587.74 67.4016C587.933 62.2415 588.029 57.0655 588.029 51.8735V30.8008C588.029 29.8599 587.267 29.0972 586.326 29.0972H573.77C572.829 29.0972 572.066 29.8599 572.066 30.8008V86.2667C572.066 87.2076 572.829 87.9704 573.77 87.9704H592.222C592.835 87.9704 593.4 87.6411 593.703 87.1081L606.478 64.616L606.482 64.6092C609.368 59.4725 611.995 54.4951 614.362 49.6775C614.189 55.2633 614.102 60.4721 614.102 65.3032V86.2667C614.102 87.2076 614.865 87.9704 615.806 87.9704H628.362C629.303 87.9704 630.066 87.2076 630.066 86.2667V30.8008Z" fill="#E8DFD0" stroke="#E8DFD0" stroke-width="3.40725" stroke-linejoin="round"/>
<path d="M527.801 87.6447C527.823 87.6569 527.846 87.6688 527.869 87.6803C531.162 89.3264 534.76 90.1338 538.621 90.1338C546.411 90.1338 552.774 87.1951 557.439 81.3032C562.047 75.482 564.214 67.802 564.214 58.5352C564.214 49.267 562.01 41.5858 557.328 35.7654C552.67 29.8083 546.309 26.8274 538.511 26.8274C534.61 26.8274 530.954 27.7259 527.586 29.5331L527.562 29.5458C526.408 30.1805 525.341 30.9036 524.361 31.714V30.8022C524.361 29.3909 523.217 28.2468 521.806 28.2468H509.687C508.275 28.2468 507.131 29.3909 507.131 30.8022V106.467C507.131 107.879 508.275 109.023 509.687 109.023H522.134C523.545 109.023 524.689 107.879 524.689 106.467V85.5924C525.645 86.3584 526.683 87.0428 527.801 87.6447ZM542.854 45.9071L542.868 45.9274C544.941 48.8541 546.11 52.9738 546.11 58.5352C546.11 64.0866 544.945 68.2528 542.861 71.2622C540.858 74.0843 538.283 75.4147 534.908 75.4147C531.714 75.4147 529.2 74.1144 527.177 71.2667C525.172 68.3409 524.034 64.1808 524.034 58.5352C524.034 52.7982 525.179 48.6522 527.17 45.8141C529.194 42.9591 531.711 41.6557 534.908 41.6557C538.265 41.6557 540.84 43.0054 542.854 45.9071Z" fill="#E8DFD0" stroke="#E8DFD0" stroke-width="5.11088" stroke-linejoin="round"/>
<path d="M466.684 86.2667V68.8033L482.46 88.4031C483.107 89.2067 484.083 89.674 485.114 89.674H500.837C502.164 89.674 503.371 88.9032 503.928 87.6988C504.486 86.4944 504.294 85.0757 503.436 84.0633L479.817 56.2051L500.742 33.0873C501.647 32.0884 501.877 30.6506 501.331 29.419C500.784 28.1875 499.564 27.3935 498.216 27.3935H483.695C482.722 27.3935 481.795 27.8094 481.149 28.5364L466.684 44.799V30.8008C466.684 28.919 465.159 27.3935 463.277 27.3935H450.83C448.948 27.3935 447.423 28.919 447.423 30.8008V86.2667C447.423 88.1485 448.948 89.674 450.83 89.674H463.277C465.159 89.674 466.684 88.1485 466.684 86.2667Z" fill="#E8DFD0" stroke="#E8DFD0" stroke-width="6.81451" stroke-linejoin="round"/>
<path d="M414.846 30.8008C414.846 27.9781 412.558 25.6899 409.736 25.6899H385.606C377.411 25.6899 370.321 27.3075 365.18 31.3809C359.902 35.5636 357.457 41.5201 357.457 48.4887C357.457 53.1452 358.453 57.4458 360.738 61.1228C362.023 63.1893 363.644 64.9449 365.548 66.4067L355.04 83.6017C354.076 85.1792 354.039 87.1543 354.944 88.7668C355.848 90.3792 357.553 91.3776 359.401 91.3776H372.831C374.671 91.3776 376.368 90.389 377.276 88.789L386.835 71.9427H392.396V86.2667C392.396 89.0894 394.684 91.3776 397.507 91.3776H409.736C412.558 91.3776 414.846 89.0894 414.846 86.2667V30.8008ZM386.807 45.3016H392.396V52.6586H386.261C382.92 52.6586 381.353 51.9881 380.708 51.4887C380.311 51.1819 379.798 50.612 379.798 48.8163C379.798 47.2918 380.237 46.8266 380.681 46.511C381.444 45.9679 383.218 45.3016 386.807 45.3016Z" fill="#E8DFD0" stroke="#E8DFD0" stroke-width="10.2218" stroke-linejoin="round"/>
<path d="M353.117 54.2991C354.074 54.2991 354.987 53.8964 355.633 53.1895C356.278 52.4826 356.596 51.5368 356.51 50.5834C355.854 43.3692 352.899 37.343 347.627 32.7305C342.398 28.0178 335.8 25.7568 328.113 25.7568C319.081 25.7568 311.565 28.712 305.95 34.8306C300.365 40.9152 297.737 48.9436 297.737 58.5348C297.737 68.126 300.365 76.1544 305.95 82.239C311.565 88.3577 319.081 91.3128 328.113 91.3128C335.889 91.3128 342.543 89.0049 347.78 84.1903L347.801 84.1702C352.992 79.3143 355.865 73.0051 356.511 65.4871C356.593 64.5362 356.272 63.5946 355.627 62.8914C354.982 62.1881 354.071 61.7878 353.117 61.7878H340.014C338.234 61.7878 336.754 63.1586 336.617 64.9338C336.374 68.0966 335.372 70.4339 333.781 72.1838C333.768 72.198 333.755 72.2123 333.743 72.2266C332.313 73.854 330.534 74.6717 328.113 74.6717C324.809 74.6717 322.44 73.461 320.634 70.9832C318.774 68.2578 317.654 64.2276 317.654 58.5348C317.654 52.8164 318.784 48.8334 320.634 46.1952C322.455 43.6283 324.827 42.398 328.113 42.398C330.642 42.398 332.514 43.1878 334.002 44.6755C334.016 44.6892 334.029 44.7026 334.043 44.716C335.515 46.1387 336.488 48.1756 336.727 51.1636C336.869 52.9343 338.347 54.2991 340.124 54.2991H353.117Z" fill="#E8DFD0" stroke="#E8DFD0" stroke-width="6.81451" stroke-linejoin="round"/>
<path d="M300.719 30.8008C300.719 29.3895 299.575 28.2453 298.163 28.2453H249.03C247.619 28.2453 246.475 29.3895 246.475 30.8008V40.2999C246.475 41.7112 247.619 42.8553 249.03 42.8553H264.818V86.2667C264.818 87.6781 265.962 88.8222 267.373 88.8222H279.93C281.341 88.8222 282.485 87.6781 282.485 86.2667V42.8553H298.163C299.575 42.8553 300.719 41.7112 300.719 40.2999V30.8008Z" fill="#E8DFD0" stroke="#E8DFD0" stroke-width="5.11088" stroke-linejoin="round"/>
<path d="M227.386 74.8546L227.365 74.8708C225.551 76.2616 223.106 77.0304 219.885 77.0304C216.19 77.0304 213.233 75.7579 210.88 73.2184C208.877 70.9875 207.574 67.5704 207.171 62.7497H246.089C247.03 62.7497 247.793 61.9869 247.793 61.0461C247.793 55.5931 247.281 51.0836 246.199 47.5837C244.58 41.4453 241.401 36.5353 236.646 32.9449C231.943 29.2655 226.25 27.4604 219.667 27.4604C211.031 27.4604 204.025 30.3084 198.851 36.1098L198.851 36.1098L198.842 36.1195C193.793 41.8678 191.322 49.1685 191.322 57.8797C191.322 67.2786 193.771 74.9895 198.835 80.8324L198.835 80.8325L198.843 80.8421C204.021 86.7262 211.106 89.6092 219.885 89.6092C227.095 89.6092 233.199 87.7826 238.07 84.0118C242.88 80.2874 245.922 75.5753 247.102 69.9099C247.207 69.4079 247.079 68.8855 246.756 68.4877C246.432 68.0898 245.947 67.8589 245.434 67.8589H232.66C231.854 67.8589 231.158 68.4232 230.992 69.2115C230.495 71.5729 229.306 73.4301 227.386 74.8546ZM227.961 43.2525L227.979 43.2699C229.834 45.0727 231.116 47.6524 231.706 51.1536H207.545C208.179 47.6517 209.453 45.0667 211.254 43.2612C213.454 41.129 216.215 40.0392 219.667 40.0392C223.123 40.0392 225.84 41.1313 227.961 43.2525Z" fill="#E8DFD0" stroke="#E8DFD0" stroke-width="3.40725" stroke-linejoin="round"/>
<path d="M181.754 30.8008C181.754 30.3303 181.373 29.949 180.902 29.949H168.455C167.985 29.949 167.603 30.3303 167.603 30.8008V55.3011C164.299 56.3774 160.8 56.9176 157.1 56.9176C153.384 56.9176 150.756 56.1013 149.063 54.6175C147.391 53.1526 146.487 50.9101 146.487 47.7244V30.8008C146.487 30.3303 146.106 29.949 145.636 29.949H133.188C132.718 29.949 132.337 30.3303 132.337 30.8008V50.1265C132.337 55.7773 134.116 60.255 137.76 63.4339L137.76 63.4339L137.767 63.4397C141.465 66.5982 146.601 68.1204 153.06 68.1204C158.063 68.1204 162.912 67.5157 167.603 66.3049V86.2667C167.603 86.7372 167.985 87.1185 168.455 87.1185H180.902C181.373 87.1185 181.754 86.7372 181.754 86.2667V30.8008Z" fill="#E8DFD0" stroke="#E8DFD0" stroke-width="1.70363" stroke-linejoin="round"/>
<path d="M78.4695 37.1346C83.4192 31.8209 90.0795 29.1641 98.4503 29.1641C106.821 29.1641 113.445 31.8209 118.322 37.1346C123.272 42.3754 125.747 49.5089 125.747 58.5348C125.747 67.5608 123.272 74.7306 118.322 80.0442C113.445 85.2851 106.821 87.9056 98.4503 87.9056C90.0795 87.9056 83.4192 85.2851 78.4695 80.0442C73.5198 74.7306 71.0449 67.5608 71.0449 58.5348C71.0449 49.5089 73.5198 42.3754 78.4695 37.1346ZM108.932 44.2316C106.384 40.7377 102.891 38.9907 98.4503 38.9907C94.0101 38.9907 90.5162 40.7377 87.9686 44.2316C85.4209 47.7255 84.1471 52.4932 84.1471 58.5348C84.1471 64.5764 85.4209 69.3441 87.9686 72.838C90.5162 76.332 94.0101 78.0789 98.4503 78.0789C102.891 78.0789 106.384 76.332 108.932 72.838C111.48 69.3441 112.754 64.5764 112.754 58.5348C112.754 52.4932 111.48 47.7255 108.932 44.2316Z" fill="#E8DFD0"/>
<path d="M69.8385 8.52734L45.5995 46.5237L71.1487 86.267H55.8628L37.7381 56.5687H37.5198L19.3951 86.267H4L29.6585 46.5237L5.31022 8.52734H20.4869L37.5198 37.0246H37.7381L54.771 8.52734H69.8385Z" fill="#E8DFD0"/>
</g>
<defs>
<filter id="filter0_d_1172_2523" x="0" y="0.183594" width="1334.81" height="119.395" filterUnits="userSpaceOnUse" color-interpolation-filters="sRGB">
<feFlood flood-opacity="0" result="BackgroundImageFix"/>
<feColorMatrix in="SourceAlpha" type="matrix" values="0 0 0 0 0 0 0 0 0 0 0 0 0 0 0 0 0 0 127 0" result="hardAlpha"/>
<feOffset dy="4"/>
<feGaussianBlur stdDeviation="2"/>
<feComposite in2="hardAlpha" operator="out"/>
<feColorMatrix type="matrix" values="0 0 0 0 0 0 0 0 0 0 0 0 0 0 0 0 0 0 0.25 0"/>
<feBlend mode="normal" in2="BackgroundImageFix" result="effect1_dropShadow_1172_2523"/>
<feBlend mode="normal" in="SourceGraphic" in2="effect1_dropShadow_1172_2523" result="shape"/>
</filter>
</defs>
</svg>
