<svg width="22" height="22" viewBox="0 0 22 22" fill="none" xmlns="http://www.w3.org/2000/svg">
<g clip-path="url(#clip0_1172_2517)">
<path d="M10.4971 11.5586C11.3623 14.0156 12.9648 16.8425 14.7242 18.8266C15.1378 19.293 19.0709 23.1913 18.3213 20.3938C17.4244 17.0465 14.2988 14.8944 13.4525 11.736" stroke="#272727" stroke-linecap="round"/>
<path d="M11.551 4.7451C11.2283 4.07719 10.2724 4.1296 9.66934 4.06864C9.07716 4.00878 8.31366 4.22764 7.76182 4.44501C7.15312 4.68478 6.73084 5.12817 6.37293 5.66735C6.13798 6.0213 5.83544 6.31625 5.83747 6.77009C5.83989 7.30859 6.06828 7.92669 6.37995 8.3636C6.68884 8.79662 7.2193 9.37547 7.7187 9.61222C8.56949 10.0156 9.7608 9.72359 10.606 9.4321C11.398 9.15896 12.5462 8.63803 12.5907 7.6555C12.6255 6.88644 12.2018 6.31198 12.0119 5.60331" stroke="#272727" stroke-linecap="round"/>
<path d="M11.4695 11.5815C9.0999 12.2164 6.80719 12.8059 4.43861 11.7504C3.3309 11.2568 2.48488 10.483 2.16519 9.28987C1.58173 7.11236 2.07079 5.42769 3.90559 3.95235C5.5081 2.66379 7.62598 0.674123 9.85981 1.00222C11.324 1.21727 12.806 1.69035 13.9745 2.6163C15.1363 3.5369 16.1658 4.63286 16.342 6.15414C16.4871 7.40639 15.6821 8.94327 15.0571 9.96446C14.5465 10.7987 13.922 11.3322 13.0839 11.7975" stroke="#272727" stroke-linecap="round"/>
</g>
<defs>
<clipPath id="clip0_1172_2517">
<rect width="22" height="22" fill="white"/>
</clipPath>
</defs>
</svg>
