<svg width="23" height="22" viewBox="0 0 23 22" fill="none" xmlns="http://www.w3.org/2000/svg">
<g clip-path="url(#clip0_1394_19283)">
<path d="M10.9971 11.5586C11.8623 14.0156 13.4648 16.8425 15.2242 18.8266C15.6378 19.293 19.5709 23.1913 18.8213 20.3938C17.9244 17.0465 14.7988 14.8944 13.9525 11.736" stroke="#E8DED0" stroke-linecap="round"/>
<path d="M12.051 4.7451C11.7283 4.07719 10.7724 4.1296 10.1693 4.06864C9.57716 4.00878 8.81366 4.22764 8.26182 4.44501C7.65312 4.68478 7.23084 5.12817 6.87293 5.66735C6.63798 6.0213 6.33544 6.31625 6.33747 6.77009C6.33989 7.30859 6.56828 7.92669 6.87995 8.3636C7.18884 8.79662 7.7193 9.37547 8.2187 9.61222C9.06949 10.0156 10.2608 9.72359 11.106 9.4321C11.898 9.15896 13.0462 8.63803 13.0907 7.6555C13.1255 6.88644 12.7018 6.31198 12.5119 5.60331" stroke="#E8DED0" stroke-linecap="round"/>
<path d="M11.9695 11.5815C9.5999 12.2164 7.30719 12.8059 4.93861 11.7504C3.8309 11.2568 2.98488 10.483 2.66519 9.28987C2.08173 7.11236 2.57079 5.42769 4.40559 3.95235C6.0081 2.66379 8.12598 0.674123 10.3598 1.00222C11.824 1.21727 13.306 1.69035 14.4745 2.6163C15.6363 3.5369 16.6658 4.63286 16.842 6.15414C16.9871 7.40639 16.1821 8.94327 15.5571 9.96446C15.0465 10.7987 14.422 11.3322 13.5839 11.7975" stroke="#E8DED0" stroke-linecap="round"/>
</g>
<defs>
<clipPath id="clip0_1394_19283">
<rect width="22" height="22" fill="white" transform="translate(0.5)"/>
</clipPath>
</defs>
</svg>
