<svg width="148" height="37" viewBox="0 0 148 37" fill="none" xmlns="http://www.w3.org/2000/svg">
<path d="M147.104 0V36.066H141.228V17.9317C141.228 12.8662 141.295 8.30733 141.431 4.25497H141.329C140.147 8.20602 138.695 12.7311 136.973 17.8304L130.742 36.066H123.803L117.572 17.8304C115.85 12.7311 114.398 8.20602 113.216 4.25497H113.115C113.25 8.30733 113.317 12.8662 113.317 17.9317V36.066H107.441V0H117.218L123.043 17.1719C124.63 21.7983 126.015 26.3234 127.197 30.7472H127.298C128.615 26.0533 130.016 21.5281 131.502 17.1719L137.328 0H147.104Z" fill="#EEEDE9"/>
<path d="M147.104 0V36.066H141.228V17.9317C141.228 12.8662 141.295 8.30733 141.431 4.25497H141.329C140.147 8.20602 138.695 12.7311 136.973 17.8304L130.742 36.066H123.803L117.572 17.8304C115.85 12.7311 114.398 8.20602 113.216 4.25497H113.115C113.25 8.30733 113.317 12.8662 113.317 17.9317V36.066H107.441V0H117.218L123.043 17.1719C124.63 21.7983 126.015 26.3234 127.197 30.7472H127.298C128.615 26.0533 130.016 21.5281 131.502 17.1719L137.328 0H147.104Z" stroke="#EEEDE9"/>
<path d="M69.7031 0H75.579V14.1832C75.579 19.6539 75.4777 25.1246 75.2751 30.5953H75.3764C77.7403 25.5974 80.2899 20.4306 83.0252 15.095L90.826 0H99.5386V36.066H93.7133V21.8827C93.7133 17.0199 93.7977 11.5492 93.9666 5.47068H93.8653C91.5014 10.4686 88.9518 15.6353 86.2165 20.9709L78.4663 36.066H69.7031V0Z" fill="#EEEDE9"/>
<path d="M69.7031 0H75.579V14.1832C75.579 19.6539 75.4777 25.1246 75.2751 30.5953H75.3764C77.7403 25.5974 80.2899 20.4306 83.0252 15.095L90.826 0H99.5386V36.066H93.7133V21.8827C93.7133 17.0199 93.7977 11.5492 93.9666 5.47068H93.8653C91.5014 10.4686 88.9518 15.6353 86.2165 20.9709L78.4663 36.066H69.7031V0Z" stroke="#EEEDE9"/>
<path d="M35.8633 36.066V0H48.8815C53.0351 0 56.2264 1.01309 58.4552 3.03927C60.684 5.06544 61.7983 7.80078 61.7983 11.2453C61.7983 14.7236 60.684 17.4758 58.4552 19.502C56.2264 21.5281 53.0351 22.5412 48.8815 22.5412H41.9418V36.066H35.8633ZM48.1723 5.1161H41.9418V17.4251H48.1723C53.1027 17.4251 55.5679 15.3652 55.5679 11.2453C55.5679 7.15916 53.1027 5.1161 48.1723 5.1161Z" fill="#EEEDE9"/>
<path d="M35.8633 36.066V0H48.8815C53.0351 0 56.2264 1.01309 58.4552 3.03927C60.684 5.06544 61.7983 7.80078 61.7983 11.2453C61.7983 14.7236 60.684 17.4758 58.4552 19.502C56.2264 21.5281 53.0351 22.5412 48.8815 22.5412H41.9418V36.066H35.8633ZM48.1723 5.1161H41.9418V17.4251H48.1723C53.1027 17.4251 55.5679 15.3652 55.5679 11.2453C55.5679 7.15916 53.1027 5.1161 48.1723 5.1161Z" stroke="#EEEDE9"/>
<path d="M26.6442 0L11.9038 17.1719L27.9612 36.066H20.1098L6.17984 18.6915H6.07853V36.066H0V0H6.07853V16.0575H6.17984L19.35 0H26.6442Z" fill="#EEEDE9"/>
<path d="M26.6442 0L11.9038 17.1719L27.9612 36.066H20.1098L6.17984 18.6915H6.07853V36.066H0V0H6.07853V16.0575H6.17984L19.35 0H26.6442Z" stroke="#EEEDE9"/>
</svg>
